# xmcd
#
# Track frame offsets:
# 150
# 13910
# 31841
# 46477
# 64702
# 78425
# 92628
# 107038
# 121901
# 138145
#
# Disc length: 2099 seconds
#
# Revision: 0
# Processed by: cddbd v1.5.2PL0 Copyright (c) Steve Scherf et al.
# Submitted via: Axialis_AX_CDPlayer 2.6
#
DISCID=7908310a
DTITLE=Lightnin' Hopkins - Lightnin' Strikes
DYEAR=1900
DGENRE=
TTITLE0=Got Me A Louisiana Woman
TTITLE1=Want To Come Home
TTITLE2=Please Don't Quit Me
TTITLE3=Devil Is Watching You
TTITLE4=Rolling And Rolling
TTITLE5=War Is Starting Again
TTITLE6=Walkin' Round In Circles
TTITLE7=Mary You
TTITLE8=Heavy Snow
TTITLE9=Coon Is Hard To Catch
EXTD=
EXTT0=
EXTT1=
EXTT2=
EXTT3=
EXTT4=
EXTT5=
EXTT6=
EXTT7=
EXTT8=
EXTT9=
PLAYORDER=
